<svg xmlns="http://www.w3.org/2000/svg" viewBox="1429.775 -7 113.552 39.371"><defs><style>.a{fill:#fff;}</style></defs><g transform="translate(1348 -13.77)"><g transform="translate(81.775 6.77)"><path class="a" d="M757.609,101.8h-4.666a1.576,1.576,0,0,1-1.579-1.573V64a1.576,1.576,0,0,1,1.579-1.573h4.666A1.576,1.576,0,0,1,759.187,64v36.224a1.576,1.576,0,0,1-1.578,1.573Z" transform="translate(-751.364 -62.428)"/><path class="a" d="M930.3,100.55a.872.872,0,0,1-.788,1.25h-4.634a2.941,2.941,0,0,1-1.665-.424,2.88,2.88,0,0,1-.949-1.021c-.011-.021-.022-.043-.032-.065l-3.746-8.152a.875.875,0,0,0-.8-.509H898.174a.875.875,0,0,0-.8.509l-3.761,8.185a2.737,2.737,0,0,1-.932,1.012,2.836,2.836,0,0,1-1.664.465h-4.634a.872.872,0,0,1-.788-1.25l18.167-37.626a.875.875,0,0,1,.788-.494h6.79a.875.875,0,0,1,.788.494Zm-15.5-13.514a.872.872,0,0,0,.8-1.234l-6.026-13.147q-.393-.821-.795-1.86a.879.879,0,0,0-1.635-.012h0q-.433,1.08-.8,1.9L900.309,85.8a.872.872,0,0,0,.8,1.235h13.688Z" transform="translate(-870.912 -62.428)"/><path class="a" d="M1319.3,62.914l-12.567,38.638a.321.321,0,0,1-.3.237h-5.6a.32.32,0,0,1-.293-.231l-9.582-28.039q-.172-.465-.329-1.012h0a.3.3,0,0,0-.6,0h0q-.158.547-.329,1.012l-9.668,28.04a.319.319,0,0,1-.293.23h-5.6a.321.321,0,0,1-.3-.237l-12.567-38.638a.363.363,0,0,1,.3-.5h5.146a2.519,2.519,0,0,1,1.443.4,1.919,1.919,0,0,1,.786,1.08l7.717,25.235q.228.82.429,1.777.052.249.1.5a.307.307,0,0,0,.612.011q.062-.266.128-.528a18.232,18.232,0,0,1,.529-1.764l8.832-25.235a2.312,2.312,0,0,1,.8-1.012,2.266,2.266,0,0,1,1.429-.465h1.944a2.259,2.259,0,0,1,1.429.424,2.776,2.776,0,0,1,.82,1.032c.006.014.012.028.017.043l8.8,25.213q.285.793.529,1.709.063.238.123.482a.307.307,0,0,0,.611-.016l.094-.466q.185-.916.414-1.709L1312,63.894a1.928,1.928,0,0,1,.786-1.039,2.425,2.425,0,0,1,1.443-.437H1319A.362.362,0,0,1,1319.3,62.914Z" transform="translate(-1205.766 -62.417)"/></g></g></svg>